<?xml version="1.0" encoding="UTF-8" standalone="no"?><svg xmlns="http://www.w3.org/2000/svg" xmlns:xlink="http://www.w3.org/1999/xlink" fill="#6fc79a" height="198" preserveAspectRatio="xMidYMid meet" version="1" viewBox="0.0 0.0 189.2 198.0" width="189.2" zoomAndPan="magnify"><g id="change1_1"><path d="M188.47,5.41v-1.54h-.77v-.77h-.77v-.77h-.77v-.77h-.77V.77h-1.54V0H5.41V.77h-1.54v.77h-.77v.77h-.77v.77h-.77v.77H.77v1.54H0V192.59H.77v1.54h.77v.77h.77v.77h.77v.77h.77v.77h1.54v.77H183.84v-.77h1.54v-.77h.77v-.77h.77v-.77h.77v-.77h.77v-1.54h.77V5.41h-.77Z"/></g><g id="change2_1"><path d="M183.07,195.68h1.54v-.77h.77v-.77h.77v-.77h.77v-1.54h.77V6.18h-.77v-1.54h-.77v-.77h-.77v-.77h-.77v-.77h-1.54v-.77H6.18v.77h-1.54v.77h-.77v.77h-.77v.77h-.77v1.54h-.77V191.82h.77v1.54h.77v.77h.77v.77h.77v.77h1.54v.77H183.07v-.77Zm-176.11-2.32v-.77h-.77v-.77h-.77v-.77h-.77V6.95h.77v-.77h.77v-.77h.77v-.77H182.29v.77h.77v.77h.77v.77h.77V191.05h-.77v.77h-.77v.77h-.77v.77H6.95Z" fill="#9836e0"/></g></svg>